<svg width="12" height="12" viewBox="0 0 12 12" fill="none" xmlns="http://www.w3.org/2000/svg">
<g clip-path="url(#clip0_362_439)">
<path d="M4.17048 0.285156V11.7153C2.9595 11.3274 1.90304 10.5649 1.15347 9.53773C0.403912 8.51056 0 7.27184 0 6.00025C0 4.72866 0.403912 3.48994 1.15347 2.46276C1.90304 1.43559 2.9595 0.673055 4.17048 0.285156Z" fill="#FE6700"/>
<path d="M11.6563 8C11.1362 9.47046 10.064 10.6806 8.66689 11.3741C7.2698 12.0676 5.65759 12.1899 4.17188 11.7151V8H11.6563Z" fill="#00732F"/>
<path d="M11.6563 3.99992H4.17188V0.284822C5.65759 -0.189987 7.2698 -0.0676934 8.66689 0.625789C10.064 1.31927 11.1362 2.52945 11.6563 3.99992Z" fill="white"/>
<path d="M12 5.99887C12.0002 6.68061 11.8839 7.35738 11.6563 8H4.17188V4H11.6563C11.8839 4.64184 12.0002 5.31786 12 5.99887Z" fill="#FE6700"/>
<circle cx="2.5" cy="3.5" r="0.5" fill="white"/>
</g>
<defs>
<clipPath id="clip0_362_439">
<rect width="12" height="12" fill="white"/>
</clipPath>
</defs>
</svg>
